<?xml version="1.0" encoding="utf-8"?>
<!-- Generator: Adobe Illustrator 16.0.0, SVG Export Plug-In . SVG Version: 6.00 Build 0)  -->
<!DOCTYPE svg PUBLIC "-//W3C//DTD SVG 1.1//EN" "http://www.w3.org/Graphics/SVG/1.1/DTD/svg11.dtd">
<svg version="1.1" xmlns="http://www.w3.org/2000/svg" xmlns:xlink="http://www.w3.org/1999/xlink" x="0px" y="0px" width="699px"
	 height="699px" viewBox="0 0 699 699" enable-background="new 0 0 699 699" xml:space="preserve">
<g id="Ebene_40" display="none">
	<rect x="217.75" y="217.125" display="inline" fill="#343A40" width="262" height="267"/>
</g>
<g id="_x32_56_1_" display="none">
	
		<line display="inline" fill="none" stroke="#FFFFFF" stroke-linecap="round" stroke-miterlimit="10" x1="279.051" y1="461.984" x2="253.605" y2="385.988"/>
	
		<line display="inline" fill="none" stroke="#FFFFFF" stroke-linecap="round" stroke-miterlimit="10" x1="253.605" y1="385.988" x2="251.996" y2="332.484"/>
	
		<line display="inline" fill="none" stroke="#FFFFFF" stroke-linecap="round" stroke-miterlimit="10" x1="251.996" y1="332.484" x2="282.309" y2="303.906"/>
	
		<line display="inline" fill="none" stroke="#FFFFFF" stroke-linecap="round" stroke-miterlimit="10" x1="282.309" y1="303.906" x2="360.344" y2="310.348"/>
	
		<line display="inline" fill="#FFFFFF" stroke="#FFFFFF" stroke-linecap="round" stroke-miterlimit="10" x1="360.344" y1="310.348" x2="409.836" y2="372.137"/>
	
		<line display="inline" fill="none" stroke="#FFFFFF" stroke-linecap="round" stroke-miterlimit="10" x1="409.836" y1="372.137" x2="402.434" y2="412.805"/>
	
		<line display="inline" fill="none" stroke="#FFFFFF" stroke-linecap="round" stroke-miterlimit="10" x1="402.434" y1="412.805" x2="356.801" y2="444.016"/>
	
		<line display="inline" fill="none" stroke="#FFFFFF" stroke-linecap="round" stroke-miterlimit="10" x1="356.801" y1="444.016" x2="279.051" y2="461.984"/>
	
		<line display="inline" fill="none" stroke="#FFFFFF" stroke-linecap="round" stroke-miterlimit="10" x1="263.25" y1="320.602" x2="246.219" y2="282.645"/>
	
		<line display="inline" fill="none" stroke="#FFFFFF" stroke-linecap="round" stroke-miterlimit="10" x1="246.219" y1="282.645" x2="276.77" y2="251.859"/>
	
		<line display="inline" fill="none" stroke="#FFFFFF" stroke-linecap="round" stroke-miterlimit="10" x1="276.77" y1="251.859" x2="370.258" y2="254.637"/>
	
		<line display="inline" fill="none" stroke="#FFFFFF" stroke-linecap="round" stroke-miterlimit="10" x1="402.848" y1="272.844" x2="454.379" y2="347.168"/>
	
		<line display="inline" fill="none" stroke="#FFFFFF" stroke-linecap="round" stroke-miterlimit="10" x1="445.984" y1="390.32" x2="405.715" y2="396.203"/>
	
		<line display="inline" fill="none" stroke="#FFFFFF" stroke-linecap="round" stroke-miterlimit="10" x1="370.941" y1="253.988" x2="380.945" y2="236.352"/>
	
		<line display="inline" fill="none" stroke="#FFFFFF" stroke-linecap="round" stroke-miterlimit="10" x1="380.824" y1="237.629" x2="421.309" y2="237.563"/>
	
		<line display="inline" fill="none" stroke="#FFFFFF" stroke-linecap="round" stroke-miterlimit="10" x1="422.152" y1="236.32" x2="402.414" y2="272.223"/>
	<g id="Ebene_15_Kopie_3_Kopie_2_Kopie" display="inline">
		<polygon points="253.754,362.125 252.801,334.354 281.695,305.202 361.273,310.074 399.77,362.125 		"/>
		<line fill="none" x1="279.051" y1="461.984" x2="253.605" y2="385.988"/>
		<line fill="none" x1="253.605" y1="385.988" x2="251.996" y2="332.484"/>
		<line fill="none" x1="251.996" y1="332.484" x2="282.309" y2="303.906"/>
		<line fill="none" x1="282.309" y1="303.906" x2="360.344" y2="310.348"/>
		<line fill="#FFFFFF" x1="360.344" y1="310.348" x2="409.836" y2="372.137"/>
		<line fill="none" x1="409.836" y1="372.137" x2="402.434" y2="412.805"/>
		<line fill="none" x1="402.434" y1="412.805" x2="356.801" y2="444.016"/>
		<line fill="none" x1="356.801" y1="444.016" x2="279.051" y2="461.984"/>
		<line fill="none" x1="263.25" y1="320.602" x2="246.219" y2="282.645"/>
		<line fill="none" x1="246.219" y1="282.645" x2="276.77" y2="251.859"/>
		<line fill="none" x1="276.77" y1="251.859" x2="390.086" y2="254.441"/>
		<line fill="none" x1="390.086" y1="254.441" x2="454.379" y2="347.168"/>
		<line fill="none" x1="454.379" y1="347.168" x2="445.984" y2="390.32"/>
		<line fill="none" x1="445.984" y1="390.32" x2="405.715" y2="396.203"/>
		<line fill="none" x1="282.309" y1="303.906" x2="276.77" y2="251.859"/>
		<line fill="none" x1="409.836" y1="372.137" x2="454.379" y2="347.168"/>
		<line fill="none" x1="282.309" y1="303.906" x2="279.051" y2="461.984"/>
		<line fill="none" x1="356.801" y1="444.016" x2="375.336" y2="329.02"/>
		<line fill="none" x1="370.941" y1="253.988" x2="380.945" y2="236.352"/>
		<line fill="none" x1="380.824" y1="237.629" x2="421.309" y2="237.563"/>
		<line fill="none" x1="422.152" y1="236.32" x2="402.414" y2="272.223"/>
		<g id="Ebene_6_Kopie_Kopie_Kopie_2_Kopie_Kopie_Kopie_Kopie_Kopie">
			<polygon fill="#EF0000" points="401.805,415.828 263.25,415.66 253.516,384.055 253.059,360.188 399.77,360.172 409.836,373.367 
							"/>
			<polygon fill="#4D4D4D" points="410.414,372.633 360.32,309.586 281.695,303.668 275.59,253.969 389.594,255.063 453.352,349 			
				"/>
			<polygon fill="#4D4D4D" points="445.523,389.73 406.141,395.578 410.414,372.633 453.477,348.355 			"/>
			<polygon fill="#4D4D4D" points="263.887,320.32 247.039,282.633 276.324,253.215 281.695,303.668 			"/>
			<polygon fill="#4D4D4D" points="389.594,255.063 370.66,257.195 380.945,236.352 421.043,236.965 400.785,274.027 			"/>
		</g>
		<polygon fill="#FFD400" points="272.168,443.781 262.895,414.508 402.059,414.48 356.801,446.383 279.051,464.348 		"/>
	</g>
</g>
<g id="_x32_56" display="none">
	
		<line display="inline" fill="none" stroke="#FFFFFF" stroke-width="6" stroke-linecap="round" stroke-miterlimit="10" x1="279.051" y1="461.984" x2="253.605" y2="385.988"/>
	
		<line display="inline" fill="none" stroke="#FFFFFF" stroke-width="6" stroke-linecap="round" stroke-miterlimit="10" x1="253.605" y1="385.988" x2="251.996" y2="332.484"/>
	
		<line display="inline" fill="none" stroke="#FFFFFF" stroke-width="6" stroke-linecap="round" stroke-miterlimit="10" x1="251.996" y1="332.484" x2="282.309" y2="303.906"/>
	
		<line display="inline" fill="none" stroke="#FFFFFF" stroke-width="6" stroke-linecap="round" stroke-miterlimit="10" x1="282.309" y1="303.906" x2="360.344" y2="310.348"/>
	
		<line display="inline" fill="#FFFFFF" stroke="#FFFFFF" stroke-width="6" stroke-linecap="round" stroke-miterlimit="10" x1="360.344" y1="310.348" x2="409.836" y2="372.137"/>
	
		<line display="inline" fill="none" stroke="#FFFFFF" stroke-width="6" stroke-linecap="round" stroke-miterlimit="10" x1="409.836" y1="372.137" x2="402.434" y2="412.805"/>
	
		<line display="inline" fill="none" stroke="#FFFFFF" stroke-width="6" stroke-linecap="round" stroke-miterlimit="10" x1="402.434" y1="412.805" x2="356.801" y2="444.016"/>
	
		<line display="inline" fill="none" stroke="#FFFFFF" stroke-width="6" stroke-linecap="round" stroke-miterlimit="10" x1="356.801" y1="444.016" x2="279.051" y2="461.984"/>
	
		<line display="inline" fill="none" stroke="#FFFFFF" stroke-width="6" stroke-linecap="round" stroke-miterlimit="10" x1="263.25" y1="320.602" x2="246.219" y2="282.645"/>
	
		<line display="inline" fill="none" stroke="#FFFFFF" stroke-width="6" stroke-linecap="round" stroke-miterlimit="10" x1="246.219" y1="282.645" x2="276.77" y2="251.859"/>
	
		<line display="inline" fill="none" stroke="#FFFFFF" stroke-width="6" stroke-linecap="round" stroke-miterlimit="10" x1="276.77" y1="251.859" x2="370.258" y2="254.637"/>
	
		<line display="inline" fill="none" stroke="#FFFFFF" stroke-width="6" stroke-linecap="round" stroke-miterlimit="10" x1="402.848" y1="272.844" x2="454.379" y2="347.168"/>
	
		<line display="inline" fill="none" stroke="#FFFFFF" stroke-width="6" stroke-linecap="round" stroke-miterlimit="10" x1="454.379" y1="347.168" x2="445.984" y2="390.32"/>
	
		<line display="inline" fill="none" stroke="#FFFFFF" stroke-width="6" stroke-linecap="round" stroke-miterlimit="10" x1="445.984" y1="390.32" x2="405.715" y2="396.203"/>
	
		<line display="inline" fill="none" stroke="#FFFFFF" stroke-width="6" stroke-linecap="round" stroke-miterlimit="10" x1="370.941" y1="253.988" x2="380.945" y2="236.352"/>
	
		<line display="inline" fill="none" stroke="#FFFFFF" stroke-width="6" stroke-linecap="round" stroke-miterlimit="10" x1="380.945" y1="236.352" x2="422.152" y2="236.32"/>
	
		<line display="inline" fill="none" stroke="#FFFFFF" stroke-width="6" stroke-linecap="round" stroke-miterlimit="10" x1="422.152" y1="236.32" x2="402.414" y2="272.223"/>
</g>
<g id="_x37_00_1_">
	
		<line fill="none" stroke="#FFFFFF" stroke-linecap="round" stroke-miterlimit="10" x1="170.754" y1="631.693" x2="106.631" y2="440.184"/>
	
		<line fill="none" stroke="#FFFFFF" stroke-linecap="round" stroke-miterlimit="10" x1="106.631" y1="440.184" x2="102.576" y2="305.354"/>
	
		<line fill="none" stroke="#FFFFFF" stroke-linecap="round" stroke-miterlimit="10" x1="102.576" y1="305.354" x2="178.963" y2="233.336"/>
	
		<line fill="none" stroke="#FFFFFF" stroke-linecap="round" stroke-miterlimit="10" x1="178.963" y1="233.336" x2="375.611" y2="249.568"/>
	
		<line fill="#FFFFFF" stroke="#FFFFFF" stroke-linecap="round" stroke-miterlimit="10" x1="375.611" y1="249.568" x2="500.332" y2="405.277"/>
	
		<line fill="none" stroke="#FFFFFF" stroke-linecap="round" stroke-miterlimit="10" x1="500.332" y1="405.277" x2="481.678" y2="507.762"/>
	
		<line fill="none" stroke="#FFFFFF" stroke-linecap="round" stroke-miterlimit="10" x1="481.678" y1="507.762" x2="366.684" y2="586.412"/>
	
		<line fill="none" stroke="#FFFFFF" stroke-linecap="round" stroke-miterlimit="10" x1="366.684" y1="586.412" x2="170.754" y2="631.693"/>
	
		<line fill="none" stroke="#FFFFFF" stroke-linecap="round" stroke-miterlimit="10" x1="130.936" y1="275.408" x2="88.018" y2="179.758"/>
	
		<line fill="none" stroke="#FFFFFF" stroke-linecap="round" stroke-miterlimit="10" x1="88.018" y1="179.758" x2="165.006" y2="102.178"/>
	
		<line fill="none" stroke="#FFFFFF" stroke-linecap="round" stroke-miterlimit="10" x1="165.006" y1="102.178" x2="400.596" y2="109.178"/>
	
		<line fill="none" stroke="#FFFFFF" stroke-linecap="round" stroke-miterlimit="10" x1="482.723" y1="155.059" x2="612.58" y2="342.355"/>
	
		<line fill="none" stroke="#FFFFFF" stroke-linecap="round" stroke-miterlimit="10" x1="591.426" y1="451.1" x2="489.947" y2="465.926"/>
	
		<line fill="none" stroke="#FFFFFF" stroke-linecap="round" stroke-miterlimit="10" x1="402.318" y1="107.543" x2="427.527" y2="63.1"/>
	
		<line fill="none" stroke="#FFFFFF" stroke-linecap="round" stroke-miterlimit="10" x1="427.223" y1="66.318" x2="529.244" y2="66.15"/>
	
		<line fill="none" stroke="#FFFFFF" stroke-linecap="round" stroke-miterlimit="10" x1="531.369" y1="63.02" x2="481.629" y2="153.494"/>
	<g id="Ebene_15_Kopie_3_Kopie_2_Kopie_Kopie">
		<polygon points="107.006,380.125 104.604,310.103 177.418,236.621 377.955,248.927 474.965,380.125 		"/>
		<line fill="none" x1="170.754" y1="631.693" x2="106.631" y2="440.184"/>
		<line fill="none" x1="106.631" y1="440.184" x2="102.576" y2="305.354"/>
		<line fill="none" x1="102.576" y1="305.354" x2="178.963" y2="233.336"/>
		<line fill="none" x1="178.963" y1="233.336" x2="375.611" y2="249.568"/>
		<line fill="#FFFFFF" x1="375.611" y1="249.568" x2="500.332" y2="405.277"/>
		<line fill="none" x1="500.332" y1="405.277" x2="481.678" y2="507.762"/>
		<line fill="none" x1="481.678" y1="507.762" x2="366.684" y2="586.412"/>
		<line fill="none" x1="366.684" y1="586.412" x2="170.754" y2="631.693"/>
		<line fill="none" x1="130.936" y1="275.408" x2="88.018" y2="179.758"/>
		<line fill="none" x1="88.018" y1="179.758" x2="165.006" y2="102.178"/>
		<line fill="none" x1="165.006" y1="102.178" x2="450.563" y2="108.686"/>
		<line fill="none" x1="450.563" y1="108.686" x2="612.58" y2="342.355"/>
		<line fill="none" x1="612.58" y1="342.355" x2="591.426" y2="451.1"/>
		<line fill="none" x1="591.426" y1="451.1" x2="489.947" y2="465.926"/>
		<line fill="none" x1="178.963" y1="233.336" x2="165.006" y2="102.178"/>
		<line fill="none" x1="500.332" y1="405.277" x2="612.58" y2="342.355"/>
		<line fill="none" x1="178.963" y1="233.336" x2="170.754" y2="631.693"/>
		<line fill="none" x1="366.684" y1="586.412" x2="413.393" y2="296.623"/>
		<line fill="none" x1="402.318" y1="107.543" x2="427.527" y2="63.1"/>
		<line fill="none" x1="427.223" y1="66.318" x2="529.244" y2="66.15"/>
		<line fill="none" x1="531.369" y1="63.02" x2="481.629" y2="153.494"/>
		<g id="Ebene_6_Kopie_Kopie_Kopie_2_Kopie_Kopie_Kopie_Kopie_Kopie_Kopie">
			<polygon fill="#EF0000" points="480.094,515.379 130.936,514.957 106.404,435.311 105.254,375.166 474.965,375.127 
				500.332,408.379 			"/>
			<polygon fill="#4D4D4D" points="501.789,406.527 375.553,247.65 177.418,232.736 162.031,107.494 449.322,110.25 
				609.992,346.973 			"/>
			<polygon fill="#4D4D4D" points="590.266,449.613 491.02,464.35 501.789,406.527 610.307,345.35 			"/>
			<polygon fill="#4D4D4D" points="132.541,274.699 90.084,179.729 163.883,105.594 177.418,232.736 			"/>
			<polygon fill="#4D4D4D" points="449.322,110.25 401.609,115.625 427.527,63.1 528.574,64.645 477.523,158.041 			"/>
		</g>
		<polygon fill="#FFD400" points="153.408,585.822 130.039,512.053 480.732,511.984 366.684,592.377 170.754,637.648 		"/>
	</g>
</g>
<g id="_x37_00">
	
		<line fill="none" stroke="#FFFFFF" stroke-width="22" stroke-linecap="round" stroke-miterlimit="10" x1="170.754" y1="631.693" x2="106.631" y2="440.184"/>
	
		<line fill="none" stroke="#FFFFFF" stroke-width="22" stroke-linecap="round" stroke-miterlimit="10" x1="106.631" y1="440.184" x2="102.576" y2="305.354"/>
	
		<line fill="none" stroke="#FFFFFF" stroke-width="22" stroke-linecap="round" stroke-miterlimit="10" x1="102.576" y1="305.354" x2="178.963" y2="233.336"/>
	
		<line fill="none" stroke="#FFFFFF" stroke-width="22" stroke-linecap="round" stroke-miterlimit="10" x1="178.963" y1="233.336" x2="375.611" y2="249.568"/>
	
		<line fill="#FFFFFF" stroke="#FFFFFF" stroke-width="22" stroke-linecap="round" stroke-miterlimit="10" x1="375.611" y1="249.568" x2="500.332" y2="405.277"/>
	
		<line fill="none" stroke="#FFFFFF" stroke-width="22" stroke-linecap="round" stroke-miterlimit="10" x1="500.332" y1="405.277" x2="481.678" y2="507.762"/>
	
		<line fill="none" stroke="#FFFFFF" stroke-width="22" stroke-linecap="round" stroke-miterlimit="10" x1="481.678" y1="507.762" x2="366.684" y2="586.412"/>
	
		<line fill="none" stroke="#FFFFFF" stroke-width="22" stroke-linecap="round" stroke-miterlimit="10" x1="366.684" y1="586.412" x2="170.754" y2="631.693"/>
	
		<line fill="none" stroke="#FFFFFF" stroke-width="22" stroke-linecap="round" stroke-miterlimit="10" x1="130.936" y1="275.408" x2="88.018" y2="179.758"/>
	
		<line fill="none" stroke="#FFFFFF" stroke-width="22" stroke-linecap="round" stroke-miterlimit="10" x1="88.018" y1="179.758" x2="165.006" y2="102.178"/>
	
		<line fill="none" stroke="#FFFFFF" stroke-width="22" stroke-linecap="round" stroke-miterlimit="10" x1="165.006" y1="102.178" x2="400.596" y2="109.178"/>
	
		<line fill="none" stroke="#FFFFFF" stroke-width="22" stroke-linecap="round" stroke-miterlimit="10" x1="482.723" y1="155.059" x2="612.58" y2="342.355"/>
	
		<line fill="none" stroke="#FFFFFF" stroke-width="22" stroke-linecap="round" stroke-miterlimit="10" x1="612.58" y1="342.355" x2="591.426" y2="451.1"/>
	
		<line fill="none" stroke="#FFFFFF" stroke-width="22" stroke-linecap="round" stroke-miterlimit="10" x1="591.426" y1="451.1" x2="489.947" y2="465.926"/>
	
		<line fill="none" stroke="#FFFFFF" stroke-width="22" stroke-linecap="round" stroke-miterlimit="10" x1="402.318" y1="107.543" x2="427.527" y2="63.1"/>
	
		<line fill="none" stroke="#FFFFFF" stroke-width="22" stroke-linecap="round" stroke-miterlimit="10" x1="427.527" y1="63.1" x2="531.369" y2="63.02"/>
	
		<line fill="none" stroke="#FFFFFF" stroke-width="22" stroke-linecap="round" stroke-miterlimit="10" x1="531.369" y1="63.02" x2="481.629" y2="153.494"/>
</g>
</svg>
